<svg xmlns="http://www.w3.org/2000/svg" viewBox="0 0 256 256"><path d="M95.011 50.979c-3.33 6.222-28.302 68.772-32.215 80.694l-2.055 6.258-9.539.284c-6.531.195-9.671.679-9.954 1.535-.311.939 1.848 1.25 8.669 1.25 4.996 0 9.083.204 9.083.453 0 .249-2.099 6.887-4.665 14.75-4.473 13.706-4.896 14.529-10.25 19.909-6.416 6.447-13.59 9.637-23.82 10.592l-6.368.595.302 3.6.301 3.601 18-.07c31.501-.123 37.156-4.355 48.475-36.281 2.662-7.507 5.154-14.436 5.539-15.399.6-1.499 2.098-1.75 10.457-1.75h9.757l4.752 11.75c10.641 26.31 13.514 31.494 20.002 36.091 5.47 3.875 9.697 5.159 16.989 5.159 20.86 0 31.72-15.644 25.684-37-2.547-9.013-5.726-8.258-6.055 1.438-.444 13.081-17.966 15.586-24.155 3.453-3.792-7.432-8.897-20.16-8.405-20.956.263-.426-.117-1.373-.845-2.104-.728-.732-8.577-18.881-17.442-40.331-22.172-53.646-20.675-50.448-22.242-47.521m42.707 3.113c-10.381 2.444-18.673 10.349-21.798 20.781-1.862 6.213-.504 6.763 7.476 3.029 11.96-5.597 22.924-3.997 30.317 4.424 3.634 4.138 6.689 12.022 12.682 32.724 2.476 8.552 4.975 16.794 5.554 18.315 1.716 4.514 1.483 4.635-8.949 4.635-8.12 0-10 .276-10 1.466 0 1.178 2.082 1.522 10.598 1.75l10.598.284 4.811 15.611c5.42 17.589 7.541 22.276 12.626 27.904 13.276 14.696 43.318 12.395 49.471-3.789 1.398-3.676.03-4.358-6.145-3.065-15.034 3.15-21.809-2.029-28.018-21.415-2.334-7.285-4.448-13.808-4.699-14.496-.345-.945 1.889-1.25 9.151-1.25 8.94 0 9.607.139 9.607 2 0 2.589.394 2.536 7.364-.999l5.865-2.974-4.365-1.869c-7.952-3.405-8.864-3.531-8.864-1.225 0 1.949-.56 2.067-9.828 2.067h-9.829l-5.273-17.25c-11.97-39.152-13.215-42.654-17.374-48.847-9.699-14.444-25.716-21.405-40.978-17.811M94.995 118.5c-.648 1.65-2.449 6.713-4.004 11.25L88.165 138h8.485c9.85 0 9.508 1.392 3.307-13.444-3.784-9.053-3.786-9.055-4.962-6.056" fill-rule="evenodd"/></svg>