<svg version="1.1" id="Layer_1" xmlns="http://www.w3.org/2000/svg" xmlns:xlink="http://www.w3.org/1999/xlink" x="0px" y="0px"
	 width="100%" viewBox="0 0 256 256" enable-background="new 0 0 256 256" xml:space="preserve">
<path fill="#000000" opacity="1.000000" stroke="none" 
	d="
M93.185318,56.406029 
	C94.571457,53.973160 94.720367,51.228561 98.019569,49.188583 
	C110.100861,78.294685 122.083252,107.162529 134.658340,137.458267 
	C134.230606,132.668732 134.391571,129.323013 136.503357,126.517242 
	C138.704285,123.593025 142.150482,121.852791 145.270813,122.963646 
	C150.779099,124.924644 155.810944,124.211334 161.105209,122.742752 
	C163.369843,122.114563 165.676743,123.112961 167.887451,124.110779 
	C168.200455,123.363762 168.626968,122.861008 168.523804,122.517220 
	C165.429977,112.208366 162.862320,101.783066 158.938095,91.673866 
	C152.686203,75.568321 137.183136,72.529503 123.175644,80.181854 
	C121.166939,81.279221 119.134857,83.377617 116.853691,81.621788 
	C114.634087,79.913361 115.876350,77.404907 116.487946,75.152863 
	C120.553574,60.182190 137.181305,50.904934 153.097717,54.107948 
	C173.482407,58.210148 182.870819,72.445206 188.312485,90.722916 
	C192.669525,105.357536 197.155167,119.953972 201.478958,134.598297 
	C202.368469,137.611023 203.924042,138.994415 207.173111,138.705475 
	C209.983398,138.455597 212.843231,138.516205 215.664291,138.699326 
	C218.855667,138.906479 221.562546,138.462677 222.583908,134.761551 
	C226.996567,136.160797 231.056427,137.348969 235.435501,140.078079 
	C231.366608,142.274841 227.989090,144.127457 224.578629,145.917313 
	C223.810272,146.320557 222.799454,146.340942 222.299774,145.575699 
	C217.911804,138.855988 211.421738,143.629425 205.996201,142.672562 
	C204.395065,142.390167 204.336060,144.350800 204.803528,145.746414 
	C207.228592,152.986481 208.661026,160.540268 211.835571,167.546982 
	C216.087250,176.931122 224.564865,181.052368 234.671997,179.089600 
	C237.262680,178.586517 240.985336,175.594177 242.712402,179.312927 
	C244.165054,182.440857 241.511841,185.741486 239.224792,188.077408 
	C229.522141,197.987473 217.555557,198.002472 205.377274,194.675247 
	C193.770309,191.504120 187.385788,182.688919 183.690033,171.787857 
	C180.865417,163.456238 178.498154,154.970428 175.742752,146.614105 
	C174.018646,141.385452 170.854782,140.853699 167.142303,144.940430 
	C163.584991,148.856354 160.394760,153.072296 156.090469,156.336319 
	C153.521713,158.284241 151.955170,158.009506 149.653641,156.075745 
	C147.336884,154.129166 145.340546,151.927628 143.293304,149.752930 
	C141.396606,147.738144 139.609329,145.620377 137.452621,143.726913 
	C140.882660,150.682098 142.356201,158.451462 146.995636,164.858795 
	C150.179077,169.255310 154.846603,171.474960 159.400421,170.440079 
	C163.948044,169.406601 167.854614,164.827194 168.607986,159.727921 
	C168.946472,157.436844 169.345901,155.152069 169.811386,152.883667 
	C170.027588,151.830063 170.770172,151.110489 171.898804,151.075592 
	C173.029556,151.040649 173.757553,151.757324 174.138794,152.742294 
	C182.122467,173.368225 176.590775,194.823486 149.685730,196.039841 
	C136.632034,196.629959 127.028793,189.182587 121.678734,177.147690 
	C117.223999,167.126816 113.132805,156.940750 109.054771,146.758087 
	C107.784767,143.586960 106.111351,141.673248 102.440567,142.356064 
	C101.635002,142.505936 100.778282,142.381485 99.945114,142.382156 
	C88.017090,142.391861 88.143013,142.433426 84.357620,153.889282 
	C81.908546,161.300980 79.335617,168.701920 76.269585,175.873123 
	C70.467911,189.442780 59.238598,195.398346 45.143131,196.260590 
	C36.676277,196.778534 28.152185,196.340393 19.654030,196.378708 
	C16.941996,196.390930 14.776350,196.189072 14.612165,192.540192 
	C14.446027,188.847855 15.798125,187.811646 19.444008,187.516312 
	C29.814217,186.676315 39.281521,183.399048 46.399609,175.249924 
	C47.701843,173.759064 49.053101,172.193848 49.884525,170.428757 
	C53.995327,161.701630 55.727928,152.177414 59.399052,142.972763 
	C53.430912,141.453125 47.679806,143.386826 42.331150,141.703796 
	C41.998638,139.360901 43.328999,138.804443 44.961418,138.731812 
	C47.290226,138.628204 49.625526,138.656296 51.958084,138.653946 
	C61.258850,138.644531 61.224636,138.636383 64.207779,130.030792 
	C70.849556,110.870979 78.586708,92.137688 86.314217,73.400604 
	C88.596039,67.867813 90.787186,62.297634 93.185318,56.406029 
M91.340996,134.531403 
	C90.999352,136.162247 89.463783,138.462616 92.732063,138.531845 
	C96.748177,138.616898 100.867111,139.359085 105.070145,137.904327 
	C102.580154,131.353470 100.795761,124.895744 96.879478,118.615311 
	C94.931618,124.154266 93.235962,128.976074 91.340996,134.531403 
z"/>
</svg>